<?xml version="1.0" encoding="UTF-8"?>
<svg id="_Слой_2" data-name="Слой_2" xmlns="http://www.w3.org/2000/svg" viewBox="0 0 79.88 113.74">
  <defs>
    <style>
      .cls-1 {
        fill: #f97355;
        fill-rule: evenodd;
      }
    </style>
  </defs>
  <g id="_Слой_2-2" data-name="Слой_2">
    <path class="cls-1" d="M77.63,36.89v-.05l-25.85-18.48h-1.15v-3.26c0-.81-.66-1.47-1.47-1.47h-1.21l2.68-13.64h-21.16l2.68,13.64h-1.21c-.81,0-1.47.66-1.47,1.47v3.26h-1.27L3.14,36.28c-1.88,1.09-3.14,3.11-3.14,5.44v65.75c0,3.47,2.81,6.28,6.28,6.28h67.33c3.47,0,6.28-2.81,6.28-6.28V41.71c0-1.94-.88-3.67-2.25-4.82ZM61.96,93.98c-2.24,4.1-4.51,6.42-6.42,7.96-4.13,3.33-8.34,4.4-10.31,4.88-4.77,1.17-8.61.79-11.57.5-3.03-.3-4.99-.49-7.42-1.45-1.98-.78-7.46-3.36-10.31-9.4-2.31-4.9-1.65-9.46-1.27-12.12.9-6.27,3.34-7.24,4.34-11.94,2.25-10.58-7.05-19.89-6.33-20.35.68-.44,9.68,7.52,10.31,18.54.34,5.95-1.88,10.75-1.09,11.03.73.26,3.52-3.45,4.39-8.09.93-4.94-1.02-7.15-1.77-13.52-.89-7.6.77-13.85,1.36-13.84.79.01-.71,11.53,5.15,23.96,2.19,4.65,4.65,7.8,5.07,7.6.66-.33-4.69-8.74-5.52-20.89-.14-2.07-.37-5.76.36-10.49,1.05-6.8,2.94-8.3,4.85-15.37,2.49-9.25,1.69-15.72,2.39-15.74.67-.01,1.51,6.75,1.63,12.84.08,4.2.16,8.08-.9,13.02-1.26,5.89-2.74,6.78-3.26,11.21-.18,1.57-.57,6.41,1.63,11.57,3,7.05,9.6,11.71,10.74,10.83.93-.7-2.5-4.4-3.46-11.42-1.16-8.42,2.1-15.29,2.71-15.19.62.1-1.71,7.23,2.17,12.75,1.41,2,4.1,4.47,5.56,3.8,2.72-1.26.96-13.38-2.98-23.02-1.92-4.69-4.02-7.97-3.35-8.5.61-.48,4.13,2.41,6.87,5.97.77,1,4.44,5.9,6.15,14.29,2.33,11.42-.74,20.62-1.36,22.38-2.94,8.42-7.75,13.08-7.05,13.65.67.55,5.75-3.23,9.41-8.86,6.14-9.45,5.02-19.11,5.43-19.08.56.04,1.33,18.81-6.15,32.47Z"/>
  </g>
</svg>