<?xml version="1.0" encoding="UTF-8"?>
<svg id="_Слой_2" data-name="Слой_2" xmlns="http://www.w3.org/2000/svg" viewBox="0 0 80.21 114.04">
  <defs>
    <style>
      .cls-1 {
        fill: #CCCECC;
        fill-rule: evenodd;
      }
    </style>
  </defs>
  <g id="_Слой_2-2" data-name="Слой_2">
    <g>
      <path class="cls-1" d="M37.35,42.7c-1.68.97-3.18,1.85-4.69,2.7-.16.09-.46.11-.61.02-1.53-.86-3.05-1.75-4.73-2.72,1.68-.97,3.2-1.87,4.74-2.73.15-.09.45-.06.61.03,1.51.85,3.01,1.73,4.68,2.7Z"/>
      <path class="cls-1" d="M33.89,35.33c.13-1.27.03-2.57.03-4.09,1.71.98,3.22,1.84,4.71,2.73.17.1.31.41.31.63.02,1.71.01,3.41.01,5.34-1.28-.73-2.37-1.47-3.54-2.01-1.18-.54-1.66-1.29-1.52-2.61Z"/>
      <path class="cls-1" d="M38.99,49.22c.19,1.53-.32,2.45-1.75,3.06-1.09.46-2.07,1.16-3.32,1.87,0-1.95-.01-3.69.02-5.42,0-.2.2-.47.39-.58,1.46-.88,2.94-1.73,4.63-2.7,0,1.38-.12,2.59.03,3.78Z"/>
      <path class="cls-1" d="M47.14,48.73c.03,1.73.02,3.47.02,5.43-1.71-.99-3.27-1.88-4.81-2.8-.13-.08-.22-.32-.22-.49-.01-1.73,0-3.47,0-5.43,1.68.98,3.17,1.82,4.63,2.7.19.11.38.39.39.59Z"/>
      <path class="cls-1" d="M42.12,39.95c0-1.31.12-2.46-.03-3.58-.21-1.66.29-2.73,1.91-3.35.98-.38,1.86-1.03,2.79-1.56.05-.03.12-.02.37-.07,0,1.8.01,3.54-.02,5.27,0,.2-.2.47-.39.59-1.46.88-2.94,1.73-4.63,2.71Z"/>
      <path class="cls-1" d="M53.77,42.7c-1.71.98-3.28,1.9-4.87,2.79-.1.06-.32,0-.44-.07-1.53-.87-3.05-1.76-4.73-2.73,1.67-.97,3.19-1.86,4.73-2.72.16-.09.45-.07.61.01,1.52.85,3.01,1.73,4.7,2.71Z"/>
      <path class="cls-1" d="M52.84,13.3l-5.52-5.52,3.53-3.53h0v-.9h-1.36V1.16c0-.64-.52-1.16-1.16-1.16h-15.58c-.64,0-1.16.52-1.16,1.16v2.2h-2.23v.9l3.53,3.53-5.52,5.52L0,27.23l30.08,86.81h20.05l30.08-86.81-27.37-13.93ZM67.1,59.86c-2.81-1.61-5.57-3.2-8.53-4.9v9.49c-1.17-.68-2.12-1.18-3.01-1.78-.19-.13-.23-.57-.23-.87.01-2.62.03-5.25.09-7.87.01-.59-.16-.93-.69-1.22-1.42-.76-2.8-1.59-4.34-2.49v9.45c-2.81-1.6-5.44-3.1-8.27-4.72,0,1.98-.02,3.77.03,5.56,0,.22.37.49.63.63,2.27,1.3,4.55,2.61,6.85,3.86.56.31.8.65.76,1.29-.05.86-.01,1.72-.01,2.78-2.82-1.59-5.45-3.06-8.24-4.63v9.76h-3.15v-9.78c-2.8,1.57-5.44,3.06-8.27,4.65,0-1.25-.05-2.3.03-3.35.02-.25.42-.53.71-.69,2.27-1.31,4.55-2.6,6.85-3.87.5-.27.68-.58.67-1.14-.04-1.61-.01-3.23-.01-5.08-2.79,1.59-5.43,3.1-8.24,4.7v-9.46c-1.69.97-3.21,1.81-4.69,2.73-.24.15-.36.65-.36.98,0,2.62.03,5.25.08,7.87.01.54-.11.9-.64,1.16-.81.4-1.57.89-2.54,1.45v-9.49c-3.02,1.74-5.76,3.31-8.6,4.95-.52-.91-1.02-1.79-1.57-2.74,2.84-1.65,5.59-3.24,8.48-4.92-2.75-1.63-5.35-3.17-8.12-4.81,1.05-.6,1.97-1.18,2.94-1.66.2-.1.6.08.85.23,2.27,1.32,4.54,2.63,6.77,4,.56.34.95.32,1.49,0,1.37-.84,2.77-1.62,4.29-2.5-2.75-1.6-5.37-3.13-8.14-4.74,2.74-1.6,5.37-3.14,8.15-4.76-1.66-.95-3.17-1.86-4.73-2.69-.23-.12-.68,0-.95.16-2.3,1.33-4.58,2.67-6.85,4.04-.47.28-.83.33-1.31.02-.75-.5-1.55-.91-2.5-1.46,2.74-1.63,5.36-3.18,8.11-4.81-2.87-1.66-5.63-3.26-8.47-4.9.52-.93,1.01-1.79,1.55-2.76,2.8,1.61,5.56,3.2,8.52,4.9v-9.49c1.18.68,2.13,1.19,3.02,1.78.19.12.23.57.22.87-.01,2.62-.03,5.25-.09,7.87-.01.59.17.93.7,1.22,1.41.77,2.79,1.6,4.34,2.49v-9.45c2.81,1.6,5.44,3.1,8.27,4.71,0-1.98.02-3.77-.03-5.56,0-.22-.38-.48-.63-.63-2.27-1.3-4.55-2.61-6.85-3.86-.56-.31-.79-.65-.75-1.29.06-.86.01-1.72.01-2.78,2.82,1.59,5.45,3.07,8.24,4.64v-9.76h3.15v9.78c2.79-1.57,5.44-3.06,8.27-4.65,0,1.22.04,2.25-.03,3.27-.02.26-.36.58-.63.74-2.3,1.33-4.61,2.64-6.93,3.91-.5.27-.67.59-.66,1.14.04,1.61.01,3.22.01,5.07,2.79-1.59,5.43-3.1,8.21-4.68v9.45c1.76-1.01,3.34-1.9,4.89-2.86.18-.11.19-.58.19-.89-.01-2.59-.03-5.18-.09-7.77-.01-.63.15-1.01.74-1.3.78-.37,1.51-.85,2.45-1.39v9.48c2.98-1.71,5.74-3.3,8.58-4.93.52.9,1.01,1.75,1.58,2.74-2.82,1.63-5.59,3.24-8.49,4.92,2.75,1.63,5.36,3.17,8.13,4.81-1.06.61-1.98,1.18-2.95,1.66-.2.1-.6-.09-.85-.23-2.24-1.3-4.48-2.6-6.69-3.95-.56-.34-.99-.41-1.57-.04-1.34.84-2.73,1.6-4.28,2.5,2.74,1.6,5.37,3.13,8.14,4.76-2.74,1.6-5.38,3.14-8.14,4.75,1.66.96,3.18,1.86,4.74,2.7.23.12.68-.01.95-.17,2.3-1.33,4.59-2.67,6.85-4.04.48-.29.84-.31,1.31,0,.75.49,1.55.91,2.49,1.46-2.74,1.63-5.36,3.18-8.11,4.81,2.88,1.67,5.64,3.26,8.47,4.9-.53.93-1.01,1.79-1.55,2.75Z"/>
    </g>
  </g>
</svg>