<?xml version="1.0" encoding="UTF-8"?>
<svg id="_Слой_2" data-name="Слой_2" xmlns="http://www.w3.org/2000/svg" viewBox="0 0 588.89 838.5">
  <defs>
    <style>
      .cls-1 {
        fill: #CCCECC;
        fill-rule: evenodd;
      }
    </style>
  </defs>
  <g id="_Слой_5" data-name="Слой_5">
    <g>
      <path class="cls-1" d="M34.86,409.77l-6.71,3.85c2.15-1.43,4.39-2.71,6.71-3.85Z"/>
      <path class="cls-1" d="M238.37,626.22c-.23,17.37-14.53,31.25-31.86,30.9-16.99-.34-30.8-14.33-30.75-31.16.06-17.47,14.08-31.48,31.45-31.38,17.37.09,31.38,14.32,31.16,31.64Z"/>
      <path class="cls-1" d="M415.13,521.27c.64,42.34-33.32,77.23-76.16,78.26-42.45,1.01-77.93-32.98-78.77-75.45-.83-42.83,32.6-78.02,75.11-79.05,43.6-1.09,79.16,32.88,79.82,76.24Z"/>
      <path class="cls-1" d="M550.66,408.24l-147.62-84.62h-.97V49.73h11.33c5.16,0,9.34-4.18,9.34-9.33V9.34c0-5.16-4.18-9.34-9.34-9.34h-237.33c-5.16,0-9.33,4.18-9.33,9.34v31.06c0,5.15,4.17,9.33,9.33,9.33h9.08v273.89l-150.29,86.15-6.71,3.85c-16.95,11.11-28.15,30.29-28.15,52.08v310.53c0,34.39,27.88,62.27,62.27,62.27h464.34c34.4,0,62.28-27.88,62.28-62.27v-310.53c0-25.87-15.77-48.05-38.23-57.46ZM517.99,579.88c-12.5,1.47-24.93,3.46-37.4,5.14-15.14,2.05-25.71,9.75-29.71,24.81-3.98,14.96.88,27.06,13.1,36.42,10.7,8.21,21.25,16.63,31.96,24.83,5.43,4.15,8.05,9.23,4.61,15.56-3.71,6.8-9.72,7.07-16.34,4.34-12.75-5.25-25.51-10.46-38.3-15.59-13.93-5.58-26.59-3.51-37.23,7.22-10.36,10.45-12.44,22.9-7.12,36.48,4.92,12.56,10.07,25.03,15.25,37.48,2.78,6.67,3.73,13.15-3.49,17.37-7.19,4.21-12.4.35-16.82-5.45-8.18-10.73-16.52-21.33-24.77-32.01-6.64-8.6-15.35-13.14-25.19-13.5-18.55-.18-32.16,11.58-34.96,29.67-2.06,13.32-3.88,26.69-5.54,40.07-.92,7.34-3.6,13.12-11.91,12.99-7.73-.12-10.51-5.61-11.41-12.59-1.69-13.07-3.57-26.12-5.4-39.18-2.2-15.75-10.96-26.62-24.68-29.91-14.96-3.58-27.1,1.09-36.46,13.3-8.4,10.94-16.96,21.76-25.38,32.68-3.72,4.83-7.68,8.89-14.25,4.81-6.17-3.82-8.32-9.11-5.43-16.14,5.12-12.48,9.95-25.07,15.24-37.48,6.15-14.42,5-27.71-6.23-39-11.24-11.3-24.53-12.5-38.96-6.35-12.13,5.17-24.46,9.87-36.63,14.94-7.2,3-12.99,1.6-17.05-5.08-4.28-7.05.44-10.99,5.46-14.85,10.94-8.41,21.83-16.87,32.63-25.44,12.26-9.72,16.93-22.85,12.6-36.6-4.52-14.32-14.65-22.09-29.53-23.97-13.08-1.65-26.12-3.68-39.2-5.38-6.89-.9-12.69-3.48-12.85-11.19-.16-8.07,5.43-11.2,12.88-12.12,12.79-1.58,25.54-3.53,38.31-5.26,16.21-2.21,27.21-10.88,30.69-24.91,3.83-15.47-1.68-27.53-14.15-36.96-10.76-8.13-21.31-16.55-31.99-24.79-4.83-3.74-8.79-7.76-4.71-14.31,3.85-6.17,9.17-8.26,16.16-5.39,13.04,5.35,26.1,10.63,39.16,15.89,13.88,5.6,26.47,3.68,37.34-6.85,10.06-9.73,12.55-23.35,6.94-37.31-5.03-12.51-10.14-25-15.27-37.47-2.8-6.79-3.17-13.21,4.21-17.12,6.93-3.68,11.85.04,16.06,5.57,7.99,10.49,16.24,20.79,24.26,31.26,9.37,12.22,21.52,16.88,36.47,13.24,13.71-3.35,22.45-14.32,24.59-29.96,1.78-13.06,3.7-26.11,5.43-39.18.92-6.96,3.75-12.48,11.51-12.46,7.64.01,10.76,5.22,11.67,12.32,1.67,13.08,3.68,26.12,5.38,39.2,1.97,15.17,9.69,25.83,24.61,29.92,14.85,4.08,27.1-.67,36.49-12.93,8.2-10.71,16.56-21.3,24.82-31.97,4.33-5.59,9.59-8.59,16.29-4.52,6.21,3.77,6.41,9.53,3.85,15.78-5.23,12.76-10.38,25.54-15.57,38.32-5.65,13.9-3.74,26.62,6.92,37.29,10.64,10.66,23.38,12.66,37.29,7.09,12.52-5.02,25.01-10.12,37.47-15.28,6.44-2.66,12.66-3.13,16.66,3.53,4.27,7.11.54,12.43-5.25,16.88-10.46,8.03-20.88,16.13-31.24,24.29-12.45,9.8-16.96,22.49-12.9,36.46,4.22,14.56,14.22,22.4,29.03,24.46,12.76,1.77,25.5,3.69,38.29,5.24,7.55.91,14.08,3.21,13.98,12.01-.1,8.84-6.81,10.76-14.29,11.64Z"/>
    </g>
  </g>
</svg>