<?xml version="1.0" encoding="UTF-8"?>
<svg id="_Слой_2" data-name="Слой_2" xmlns="http://www.w3.org/2000/svg" viewBox="0 0 591.33 838.31">
  <defs>
    <style>
      .cls-1 {
        fill: #CCCECC;
        fill-rule: evenodd;
      }
    </style>
  </defs>
  <g id="_Слой_5" data-name="Слой_5">
    <path class="cls-1" d="M548.96,753.56h-34.29v-428.29h34.29c23.4,0,42.37-18.97,42.37-42.38,0-11.7-4.74-22.29-12.41-29.96s-18.26-12.41-29.96-12.41h-110.62v-9.96c0-10.49-8.51-19-19-19h-9.15l-62.76-103.38c11.11-.73,19.9-9.98,19.9-21.29v-4.66c0-11.79-9.55-21.34-21.33-21.34h-16.44c.64-1.42,1-3,1-4.66V11.34c0-6.26-5.07-11.34-11.33-11.34h-42.22c-6.26,0-11.34,5.08-11.34,11.34v44.89c0,1.66.36,3.24,1.01,4.66h5.91l-2.58,4.25c-1.43-1.12-2.58-2.57-3.33-4.25h-21.35c-11.78,0-21.33,9.55-21.33,21.34v4.66c0,11.31,8.78,20.55,19.89,21.28l-62.76,103.39h-11.79c-10.49,0-19,8.51-19,19v9.96H42.37c-23.4,0-42.37,18.97-42.37,42.37,0,11.71,4.74,22.3,12.41,29.97,7.67,7.67,18.26,12.41,29.96,12.41h42.97v428.29h-42.97c-23.4,0-42.37,18.97-42.37,42.38,0,11.7,4.74,22.29,12.41,29.96,7.67,7.67,18.26,12.41,29.96,12.41h506.59c23.4,0,42.37-18.97,42.37-42.37,0-11.7-4.74-22.3-12.41-29.97-7.67-7.67-18.26-12.41-29.96-12.41ZM90.88,514.88c-1.51.38-3.02.8-4.53,1.24,1.5-1.03,3.01-1.99,4.53-2.89v1.65ZM461.85,673.8c-16.05,11.89-34.02,19.48-57.11,22.97,26.5-22.55,36.25-48.72,32.27-80.02-3.47-27.28-15-51.07-33.05-71.35-10.16-11.41-22.34-21.04-33.61-31.47-.88.86-1.77,1.72-2.65,2.57,4.14,4.98,8.47,9.82,12.4,14.96,21.61,28.22,39.05,58.15,38,95.4-1.45,50.95-58.58,94.89-108.4,83.42-26.24-6.04-44.86-29.27-49.1-60.65-4.02-29.77,1.39-58.42,10.57-86.42,6.1-18.62,13.86-36.69,21.8-57.43-17.45,18.26-28.93,37.5-37.87,58.39-11.99,28.05-18.36,57.15-15.27,87.8,2,19.76,8.6,37.7,23.38,53.39-3.31.7-5.61,1.52-7.95,1.63-71.66,3.59-120.21-60.87-98.58-130.69,9.44-30.48,29.33-52.81,54.82-70.77,16.47-11.6,33.17-22.88,49.7-34.4,27.58-19.23,41.86-45.08,40.98-79.35-.58-22.97-.97-46.23,11.44-67.4-1.21-.45-2.41-.89-3.62-1.34-3.52,7.54-8.71,14.77-10.2,22.7-2.88,15.24-4.68,30.84-5.11,46.34-.78,27.91-11.01,49.99-34.95,65.32-21.12,13.53-43.02,26.17-62.57,41.72-17.94,14.26-35.93,29.95-49.08,48.45-28.15,39.58-22.98,87.56,9.67,123.65,1.47,1.61,2.91,3.25,3.5,6.22-2.79-1.5-5.73-2.77-8.33-4.53-36.7-24.85-50.38-70.85-33.69-113.1,10.7-27.12,29.03-48.26,53.05-64,24.77-16.23,50.15-31.62,75.98-46.11,25.37-14.24,37.79-34.15,37.46-63.83-.18-16.36,3.19-33.32,8.13-49.02,5.11-16.23,18.24-25.39,36.1-26.96-13.98,46.91-6.76,90.28,20.55,129.25,9.5,13.56,23.98,24.06,37.43,34.35,21.08,16.14,44.23,29.68,64.62,46.58,22.49,18.63,37.2,43.22,41.84,72.61,5.26,33.29-5.17,60.85-32.55,81.12ZM508.81,515.34v-1.54c1.62.92,3.24,1.88,4.85,2.88-1.62-.47-3.24-.92-4.85-1.34Z"/>
  </g>
</svg>