<?xml version="1.0" encoding="UTF-8"?>
<svg id="_Слой_2" data-name="Слой_2" xmlns="http://www.w3.org/2000/svg" viewBox="0 0 80.21 113.74">
  <defs>
    <style>
      .cls-1 {
        fill: #557b4d;
        fill-rule: evenodd;
      }
    </style>
  </defs>
  <g id="_Слой_2-2" data-name="Слой_2">
    <g id="_Слой_1-2" data-name="_Слой_1">
      <g id="shape0">
        <path class="cls-1" d="M62.5,16.21c0,1.41-.57,2.6-1.71,3.59-.9.92-1.86,1.51-2.89,1.76-.16.76-.54,1.4-1.11,1.93-.16.26-.37.43-.6.56-.52.41-1.17.61-1.93.61h-.38v8.82h.38c1.02,0,1.86.33,2.52.96.75.77,1.11,1.61,1.11,2.52s-.38,2.2-1.11,2.84c-.66.8-1.51,1.19-2.52,1.19h-.38v5.58c4.72,3.47,8.82,6.67,12.3,9.64,9.09,7.69,13.77,13.39,14.03,17.09v21.19c0,12.83-6.14,19.25-18.43,19.25H18.26c-9.02,0-14.7-3.53-17.04-10.58C.41,100.69,0,97.8,0,94.48v-21.19c-.05-1.11.35-2.43,1.21-3.93,1.93-3.36,6.09-7.75,12.48-13.16,3.31-2.96,7.34-6.17,12.09-9.64v-5.58h-.16c-1.09,0-1.99-.39-2.74-1.19-.62-.64-.94-1.57-.94-2.84s.31-1.75.94-2.52c.75-.65,1.65-.96,2.74-.96h.16v-8.82h-.16c-1.09,0-1.99-.39-2.74-1.17-.5-.52-.81-1.17-.94-1.93-1.28-.11-2.43-.71-3.45-1.76-1.06-.99-1.59-2.18-1.59-3.59s.53-2.73,1.59-3.87c1.11-1.07,2.4-1.6,3.85-1.6h5.14v-3.42c0-4.87,2.12-7.31,6.33-7.31h11.94c4.22,0,6.33,2.44,6.33,7.32v3.42h5.05c1.41,0,2.62.53,3.65,1.6,1.14,1.13,1.71,2.41,1.71,3.87M53.1,82.98c.91,1.04,1.36,2.22,1.36,3.54,0,3.01-.76,4.99-2.28,5.94-.76.57-1.74.85-2.93.85s-2.22-.28-3.01-.85c-1.37-.85-2.05-2.6-2.05-5.26,0-3.78,1.76-5.68,5.29-5.68s2.9.49,3.65,1.46M18.63,77.2c0,4.68.65,8.08,1.97,10.21,1.36,2.35,2.18,4.03,2.5,5.05-.31,4.21.87,6.62,3.54,7.26,2.48.71,4.45,1.67,5.89,2.89l.66,3.84h13.77l.68-3.84c1.3-1.29,3.19-2.25,5.67-2.89,2.69-1.42,3.95-3.78,3.78-7.08v-.16c.08-.53.24-1.04.46-1.52,2.65-4.76,3.97-9.35,3.97-13.73,0-5.33-2.02-9.74-6.06-13.23-4.02-3.3-9.14-4.95-15.4-4.95s-11.34,1.64-15.68,4.95c-3.85,3.35-5.78,7.76-5.78,13.23M31.12,81.51c3.4,0,5.11,1.67,5.11,5.01s-.72,4.99-2.16,5.94c-.79.57-1.78.85-2.96.85s-2.21-.28-3.01-.85c-1.36-.85-2.05-2.6-2.05-5.26s.39-3.19,1.17-4.23c.87-.98,2.17-1.46,3.88-1.46M40.33,92.84c4.29,6.23,4.41,8.13.35,5.7-.54-.39-.99-.39-1.33,0-4.11,2.43-4,.53.34-5.7.26-.27.46-.27.62,0"/>
      </g>
    </g>
  </g>
</svg>