<?xml version="1.0" encoding="UTF-8"?>
<svg id="_Слой_2" data-name="Слой_2" xmlns="http://www.w3.org/2000/svg" viewBox="0 0 591.34 838.5">
  <defs>
    <style>
      .cls-1 {
        fill: #ffc185;
        fill-rule: evenodd;
      }
    </style>
  </defs>
  <g id="_Слой_5" data-name="Слой_5">
    <path class="cls-1" d="M220.78,301.42c-4.89-17.68-8.09-27.14-9.59-28.36h-6.35c-2.91,0-7.85.1-14.81.28-7.05.19-11.85.28-14.39.28-11.38,42.98-17.91,68.05-19.61,75.19.75.19,3.15.29,7.2.29,17.86,0,39.73-1.37,65.59-4.09-.19-9.78-2.87-24.31-8.04-43.59ZM220.78,301.42c-4.89-17.68-8.09-27.14-9.59-28.36h-6.35c-2.91,0-7.85.1-14.81.28-7.05.19-11.85.28-14.39.28-11.38,42.98-17.91,68.05-19.61,75.19.75.19,3.15.29,7.2.29,17.86,0,39.73-1.37,65.59-4.09-.19-9.78-2.87-24.31-8.04-43.59ZM576.17,750.09c-5.65-5.65-12.61-10-20.38-12.56V249.32c0-4.91-1.99-9.35-5.21-12.57-3.21-3.22-7.66-5.21-12.57-5.21h1.41c-9.55,0-54.8-1.12-85.82-36.28-10.14-11.5-16.04-23.54-19.53-33.22,1.67-.13,3.18-.87,4.29-1.99,1.25-1.25,2.02-2.97,2.02-4.87,0-3.81-3.08-6.89-6.89-6.89-8.36-.03-43.3-1.21-67.38-25.17-9.56-9.52-14.34-19.58-16.82-26.74v-.53h-13.88L349.29,0h-96.41l14.39,95.85h-14.39v.44c-2.47,7.17-7.25,17.27-16.85,26.83-24.5,24.39-60.25,25.17-67.8,25.17h-4.81c-1.91,0-3.63.77-4.87,2.02-1.25,1.24-2.02,2.96-2.02,4.87,0,3.8,3.08,6.89,6.89,6.89h1.1c-3.49,9.68-9.38,21.7-19.51,33.19-31.02,35.16-76.27,36.28-85.82,36.28h-.29c-9.82,0-17.78,7.96-17.78,17.78v486.71c-23.48,4.92-41.12,25.74-41.12,50.68,0,14.3,5.8,27.25,15.17,36.62,9.37,9.37,22.32,15.17,36.62,15.17h487.76c28.6,0,51.79-23.19,51.79-51.79,0-14.3-5.8-27.24-15.17-36.62ZM309.77,343.31c0-18.34,7.8-35.97,23.42-52.9,20.22-21.91,48.19-32.87,83.93-32.87,10.07,0,21.82,4.71,35.27,14.11,12.98,9.03,20.97,13.54,23.98,13.54,2.17,0,5.55-1.1,10.16-3.31,4.61-2.21,7.57-3.32,8.89-3.32,2.72,0,4.65,2.5,5.78,7.48l-49.37,24.26c-2.64-1.13-6.07-3.71-10.3-7.76-2.73-2.44-7.01-6.39-12.84-11.85-12.32-10.53-25.3-15.8-38.93-15.8-7.15,0-13.88,2.12-20.18,6.35-5.26,3.2-9.21,6.91-11.85,11.15-4.04,6.39-8.18,12.69-12.41,18.9-3.86,7.05-5.78,14.34-5.78,21.87v19.04c0,19.47,6.91,37.29,20.73,53.47,14.67,17.4,32.21,26.75,52.62,28.07,2.63.19,5.69.28,9.17.28,21.07,0,39.26-3.85,54.59-11.57l.57-.56c.85-.75,1.55-1.74,2.12-2.96.75-2.26,1.12-6.07,1.12-11.43-1.12-11.76-5.73-21.77-13.82-30.05-6.77-6.58-13.73-10.44-20.88-11.57l-42.74,16.37c-3.48-2.45-5.22-5.6-5.22-9.45,2.16-.38,12.08-3.86,29.76-10.44,18.53-6.96,28.83-11.19,30.9-12.7,3.1-1.97,8.79-5.73,17.07-11.28l.56-.29c4.8-4.79,8.46-7.19,11-7.19,1.32,0,2.78.56,4.38,1.69,1.69,1.32,2.54,2.78,2.54,4.37s-2.03,3.53-6.07,6.07c-4.23,2.26-6.35,4.37-6.35,6.35,0,.56,1.08,1.93,3.25,4.09,13.26,13.26,19.89,26.62,19.89,40.06s-1.84,21.49-5.5,25.82c-8.09,9.4-17.83,16.79-29.21,22.15-13.63,6.58-24.4,10.91-32.3,12.98-9.88,2.72-22.01,4.09-36.4,4.09-25.48,0-47.16-8.75-65.03-26.24-17.68-17.4-26.52-38.32-26.52-62.78v-26.24ZM465.42,564.29c-29.56,23.2-58.39,46.14-87.72,68.42-3.13,2.38-9.57,2.37-13.76,1.12-83.47-25.07-166.85-50.48-250.22-75.88-1.08-.32-1.92-1.45-4.8-3.72,34.13-22.24,67.53-44.2,101.27-65.63,2.99-1.9,8.51-1.35,12.33-.2,79.3,23.93,158.52,48.11,237.74,72.3,1.1.33,1.98,1.34,5.16,3.59ZM103.13,450.81l1.41.28.85.56c.84.38,1.64.57,2.4.57,1.5,0,3.33-.75,5.5-2.26,1.69-1.22,8.6-25.48,20.74-72.79.56-2.16,1.26-3.24,2.11-3.24,4.04-17.5,12.51-50.13,25.39-97.91-.19-1.78-2.82-3.05-7.9-3.81-9.78-.75-19.7-1.41-29.76-1.97-13.45-2.16-20.17-6.58-20.17-13.26,22.75,1.32,51.44,2.63,86.05,3.95,11.75,0,25.15-.85,40.2-2.54,15.05-1.79,23.94-2.68,26.66-2.68,6.87,0,11.29,2.45,13.27,7.33-3.49,2.45-8.7,4.14-15.66,5.08-3.86.66-5.98,1.09-6.35,1.27-1.32.76-1.98,2.78-1.98,6.07,0,8.84,2.31,25.39,6.92,49.66,4.42,22.1,7.28,34.7,8.6,37.8l.28,1.41c2.73,14.86,5.46,29.72,8.19,44.58,4.41,21.54,8.55,33.67,12.41,36.4,1.13.75,3.71,1.22,7.76,1.41,3.85,0,6.63.56,8.32,1.69,2.73,1.79,4.09,5.27,4.09,10.44-4.61.94-8.09,1.41-10.44,1.41l-10.01-1.41c-6.96-.75-16.6-1.13-28.92-1.13-8.84,0-16.08.38-21.73,1.13l-7.47,1.13c-2.26-2.26-3.39-4.38-3.39-6.35,0-2.63,3.43-4.75,10.3-6.35,7.71-1.88,12.36-3.81,13.96-5.78-6.39-48.91-10.86-74.72-13.4-77.45-8.27.19-22.71,1.74-43.31,4.66-24.07,3.29-37.24,6.2-39.49,8.74-1.79,5.36-3.91,13.64-6.35,24.83-3.67,16.93-5.5,30.89-5.5,41.9.37,3.86,1.97,5.78,4.79,5.78.85,0,2.77-.19,5.79-.56,2.91-.47,5.64-.71,8.18-.71,2.63.85,3.95,4.52,3.95,11.01-2.26.37-21.59,1.73-57.98,4.09-.19-3.3-.28-6.21-.28-8.75,0-2.82.66-4.23,1.97-4.23ZM63.66,664.39c10.42-31.5,19.79-61.4,30.75-90.71,1.19-3.19,12.24-5.45,17.5-3.92,55.2,16.02,110.15,32.89,165.16,49.53,26.03,7.88,51.94,16.18,78.12,23.49,10.19,2.84,15.06,7.57,16.84,18.56,5.68,35.19,12.73,70.17,20.01,109.28-111.73-36.14-219.15-70.89-328.38-106.23ZM403.07,768.39c-7.61-41.29-14.75-79.12-21.25-117.06-.57-3.32,2.04-8.61,4.87-10.87,29.88-23.85,60.11-47.27,91.86-72.06,20.07,28.22,39.29,55.24,59.96,84.3-45.18,38.59-88.73,75.79-135.44,115.69ZM228.82,345.01c-.19-9.78-2.87-24.31-8.04-43.59-4.89-17.68-8.09-27.14-9.59-28.36h-6.35c-2.91,0-7.85.1-14.81.28-7.05.19-11.85.28-14.39.28-11.38,42.98-17.91,68.05-19.61,75.19.75.19,3.15.29,7.2.29,17.86,0,39.73-1.37,65.59-4.09Z"/>
  </g>
</svg>