<?xml version="1.0" encoding="UTF-8"?>
<svg id="_Слой_2" data-name="Слой_2" xmlns="http://www.w3.org/2000/svg" viewBox="0 0 80.26 113.74">
  <defs>
    <style>
      .cls-1 {
        fill: #CCCECC;
      }

      .cls-1, .cls-2 {
        fill-rule: evenodd;
      }

      .cls-2 {
        fill: #CCCECC;
      }
    </style>
  </defs>
  <g id="_Слой_2-2" data-name="Слой_2">
    <g>
      <path class="cls-2" d="M50.65,63.42c-.16-.02-.21,1.39-1.14,3.26-.61,1.23-1.65,3.3-3.56,3.92-2,.65-4.02-.61-5.36-1.45-3.2-1.99-5.37-4.76-5.37-4.76-.35-.45-.96-1.27-1.99-1.51-.79-.18-1.7,0-2.29.42-1.86,1.32-1.28,5.46-.3,7.96.39,1.01,1.52,3.9,4.64,5.49,2.75,1.4,5.37.93,6.51.72,1.08-.19,3.42-.65,5.43-2.59,1.61-1.56,2.17-3.28,2.71-4.94,1.09-3.34.96-6.48.72-6.51ZM50.65,63.42c-.16-.02-.21,1.39-1.14,3.26-.61,1.23-1.65,3.3-3.56,3.92-2,.65-4.02-.61-5.36-1.45-3.2-1.99-5.37-4.76-5.37-4.76-.35-.45-.96-1.27-1.99-1.51-.79-.18-1.7,0-2.29.42-1.86,1.32-1.28,5.46-.3,7.96.39,1.01,1.52,3.9,4.64,5.49,2.75,1.4,5.37.93,6.51.72,1.08-.19,3.42-.65,5.43-2.59,1.61-1.56,2.17-3.28,2.71-4.94,1.09-3.34.96-6.48.72-6.51ZM50.65,63.42c-.16-.02-.21,1.39-1.14,3.26-.61,1.23-1.65,3.3-3.56,3.92-2,.65-4.02-.61-5.36-1.45-3.2-1.99-5.37-4.76-5.37-4.76-.35-.45-.96-1.27-1.99-1.51-.79-.18-1.7,0-2.29.42-1.86,1.32-1.28,5.46-.3,7.96.39,1.01,1.52,3.9,4.64,5.49,2.75,1.4,5.37.93,6.51.72,1.08-.19,3.42-.65,5.43-2.59,1.61-1.56,2.17-3.28,2.71-4.94,1.09-3.34.96-6.48.72-6.51ZM50.65,63.42c-.16-.02-.21,1.39-1.14,3.26-.61,1.23-1.65,3.3-3.56,3.92-2,.65-4.02-.61-5.36-1.45-3.2-1.99-5.37-4.76-5.37-4.76-.35-.45-.96-1.27-1.99-1.51-.79-.18-1.7,0-2.29.42-1.86,1.32-1.28,5.46-.3,7.96.39,1.01,1.52,3.9,4.64,5.49,2.75,1.4,5.37.93,6.51.72,1.08-.19,3.42-.65,5.43-2.59,1.61-1.56,2.17-3.28,2.71-4.94,1.09-3.34.96-6.48.72-6.51ZM50.65,63.42c-.16-.02-.21,1.39-1.14,3.26-.61,1.23-1.65,3.3-3.56,3.92-2,.65-4.02-.61-5.36-1.45-3.2-1.99-5.37-4.76-5.37-4.76-.35-.45-.96-1.27-1.99-1.51-.79-.18-1.7,0-2.29.42-1.86,1.32-1.28,5.46-.3,7.96.39,1.01,1.52,3.9,4.64,5.49,2.75,1.4,5.37.93,6.51.72,1.08-.19,3.42-.65,5.43-2.59,1.61-1.56,2.17-3.28,2.71-4.94,1.09-3.34.96-6.48.72-6.51ZM50.65,63.42c-.16-.02-.21,1.39-1.14,3.26-.61,1.23-1.65,3.3-3.56,3.92-2,.65-4.02-.61-5.36-1.45-3.2-1.99-5.37-4.76-5.37-4.76-.35-.45-.96-1.27-1.99-1.51-.79-.18-1.7,0-2.29.42-1.86,1.32-1.28,5.46-.3,7.96.39,1.01,1.52,3.9,4.64,5.49,2.75,1.4,5.37.93,6.51.72,1.08-.19,3.42-.65,5.43-2.59,1.61-1.56,2.17-3.28,2.71-4.94,1.09-3.34.96-6.48.72-6.51ZM79.13,107.15c-.38-.38-.85-.69-1.36-.88v-48.88c1.43-.57,2.44-1.96,2.44-3.59,0-1.07-.43-2.03-1.13-2.73-.58-.58-1.34-.97-2.19-1.09-.47-.37-3.65-2.98-3.9-7.41,1.44-.14,2.57-1.35,2.57-2.83,0-.78-.32-1.49-.83-2.01-.45-.45-1.05-.75-1.71-.82.02-.25.03-.5.03-.75v-4.7c0-2.38-.92-4.54-2.42-6.16-.02-.02-.04-.05-.07-.07.02,0,.04,0,.07,0,1.37-.2,2.42-1.38,2.42-2.81,0-.79-.32-1.49-.83-2.01-.52-.51-1.22-.83-2.01-.83h-.4C66.64,8.35,54.77,0,40.6,0S14.53,8.36,11.38,19.6c-1.4.17-2.49,1.37-2.49,2.82,0,.79.32,1.49.83,2.01.24.24.53.44.84.58.05.02.11.05.17.07-.06.06-.12.12-.17.18-1.53,1.62-2.47,3.81-2.47,6.21v4.7c0,.25,0,.49.03.73h-.53c-1.57,0-2.84,1.27-2.84,2.84,0,.79.32,1.49.83,2.01.42.42.98.71,1.6.8-.24,4.47-3.46,7.09-3.91,7.43-1.85.28-3.27,1.88-3.27,3.81,0,1.07.43,2.03,1.13,2.73.37.37.82.67,1.31.86v48.92c-1.4.58-2.39,1.96-2.39,3.57,0,1.07.43,2.03,1.13,2.73.7.7,1.66,1.13,2.73,1.13h72.5c2.13,0,3.86-1.73,3.86-3.86,0-1.07-.43-2.03-1.13-2.73ZM66.39,71.4c.11.14-1.14,1.63-2.94,2.76-.6.38-.87.47-4.16,1.85-1.95.82-2.56,1.08-2.58,1.04-.04-.08,2.02-.96,4.79-2.71.46-.29,1.27-.82,2.58-1.63,2.15-1.33,2.28-1.35,2.31-1.31ZM59.18,64.51c-.14-6.87-2.24-7.34-1.45-11.3.49-2.48,1.36-2.5,3.53-7.98,1.24-3.14,1.6-5.54,1.9-5.49.26.05.19,1.88-.04,3.21-.12.68-.28,1.56-.81,2.55-.44.83-.61.73-1.24,1.72-.58.89-.5,1.06-1.49,3.12-.67,1.39-.76,1.43-.93,1.99-.07.22-.28.99-.27,2.6,0,.48.03,1.86.5,4.11.36,1.73.48,1.6.75,3.03.25,1.33.3,2.3.38,3.89.12,2.28.03,3.43,0,3.8-.16,1.8-.44,2.43-.66,2.8-.17.31-.52.84-1.56,1.67-1.66,1.34-3.76,2.38-3.93,2.13-.2-.28,2.45-1.52,4.07-4.34.29-.51,1.37-2.49,1.27-7.51ZM53.49,41.4c2.01-3.43,4.19-2.89,7.11-6.95.42-.59,2.3-3.26,3.17-7.14.95-4.27.18-7.71.36-7.73.15-.01.69,2.31.65,5.14-.03,2.21-.08,5.21-1.84,7.96-.99,1.55-1.36,1.19-4.79,4.61-2.16,2.14-3.23,3.22-4.02,4.51-2.44,3.98-1.97,8.16-2.05,8.15-.08,0-.96-4.48,1.42-8.54ZM47.05,27.26c1.94-4.74-.64-5.92.45-13.56.73-5.13,2.54-9.18,2.71-9.13.1.03-.28,1.44-.72,4.34-.06.39-.46,3.02-.63,5.34-.27,3.61.18,4.04.09,7.41-.1,3.73-.74,6.6-1.54,10.13-.57,2.52-1.17,4.59-1.63,6.06-.35-.85-.77-2.14-.81-3.71-.09-3.01,1.22-4.78,2.08-6.87ZM39.97,39.01c2.26-.56,6.91,10.55,7.46,11.87.98,2.36,1.74,4.18,2.41,6.83,1.47,5.79,3.2,12.4-.4,17.37-.31.43-3.64,4.83-9.09,5.07-3.87.17-7.39-1.82-9.41-4.39-4.29-5.46-2.66-13.69.39-18.38,2.03-3.12,3.29-2.57,5.3-5.89,3.74-6.2,1.7-12.07,3.33-12.47ZM27.59,36.9c.69-3.77,1.9-4.56,3.8-9.04.64-1.52,2.85-6.97,3.44-13.69.44-4.99-.19-8.77.12-8.8.28-.03.82,2.94,1.09,4.88.23,1.69.53,3.86.42,6.63-.14,3.46-.33,8.18-3.13,12.36-1.16,1.73-2.26,2.6-3.13,5-.34.93-.36,1.31-1.02,4.4-.82,3.83-1.24,5.74-1.45,5.73-.37-.03-.82-3.64-.12-7.48ZM15.79,26.93s.45,2.1.81,5.25c.52,4.49.33,5.55,1.27,7.42.6,1.19.83,1.06,1.9,3,.73,1.31,1.5,2.71,1.9,4.33.8,3.24-.16,6.35-.45,6.33-.27-.01.46-2.6-.59-5.92-1.35-4.27-4.07-4.81-4.57-8.73-.16-1.29.16-.98.23-4.02.09-4.42-.55-7.64-.5-7.64ZM10.7,45.35c.18-.03.72,2.16.95,3.16.21.95.45,2.02.63,3.48.28,2.29.04,2.52.36,4.16.26,1.3.63,2.26.95,3.07.72,1.84,1.09,2.76,1.81,3.44.9.85,1.24.49,3.12,1.85.63.45.89.71,1.67,1.22,1.08.7,1.49.81,1.9,1.09,1.98,1.36,1.7,5.46,1.36,5.52-.26.05-.1-2.35-1.9-4.61-1.49-1.87-2.6-1.51-5.56-3.93-1.25-1.03-2.38-1.96-3.3-3.53-.85-1.44-1.06-2.63-1.49-5.02-.51-2.85-.13-3.12-.52-8.73-.03-.39-.08-1.15.02-1.17ZM40.11,108.06c-16.86,0-30.55-13.56-30.76-30.36h13.24c-.13.55-.26,1.38-.16,2.36.22,2.03,1.23,2.48,1.49,3.89.51,2.78-2.82,4.44-2.12,6.11.53,1.27,2.5.5,4.88,1.93,3,1.8,2.1,4.36,4.88,6.39,2.53,1.85,6.68,2.23,8.92.48,2.13-1.65,1.52-4.41,3.2-4.88,2.03-.58,3.94,3.2,5.61,2.59,1.73-.64.38-5.02,2.77-6.63,1.95-1.31,4.64.39,5.65-1.02.56-.79-.21-1.41.26-2.9.66-2.11,2.71-2.49,2.53-3.56-.17-.99-1.96-.9-2.71-2.4-.42-.83-.31-1.74-.16-2.36h13.24c-.21,16.81-13.9,30.36-30.76,30.36ZM33.23,62.88c-.79-.18-1.7,0-2.29.42-1.86,1.32-1.28,5.46-.3,7.96.39,1.01,1.52,3.9,4.64,5.49,2.75,1.4,5.37.93,6.51.72,1.08-.19,3.42-.65,5.43-2.59,1.61-1.56,2.17-3.28,2.71-4.94,1.09-3.34.96-6.48.72-6.51-.16-.02-.21,1.39-1.14,3.26-.61,1.23-1.65,3.3-3.56,3.92-2,.65-4.02-.61-5.36-1.45-3.2-1.99-5.37-4.76-5.37-4.76-.35-.45-.96-1.27-1.99-1.51ZM50.65,63.42c-.16-.02-.21,1.39-1.14,3.26-.61,1.23-1.65,3.3-3.56,3.92-2,.65-4.02-.61-5.36-1.45-3.2-1.99-5.37-4.76-5.37-4.76-.35-.45-.96-1.27-1.99-1.51-.79-.18-1.7,0-2.29.42-1.86,1.32-1.28,5.46-.3,7.96.39,1.01,1.52,3.9,4.64,5.49,2.75,1.4,5.37.93,6.51.72,1.08-.19,3.42-.65,5.43-2.59,1.61-1.56,2.17-3.28,2.71-4.94,1.09-3.34.96-6.48.72-6.51ZM50.65,63.42c-.16-.02-.21,1.39-1.14,3.26-.61,1.23-1.65,3.3-3.56,3.92-2,.65-4.02-.61-5.36-1.45-3.2-1.99-5.37-4.76-5.37-4.76-.35-.45-.96-1.27-1.99-1.51-.79-.18-1.7,0-2.29.42-1.86,1.32-1.28,5.46-.3,7.96.39,1.01,1.52,3.9,4.64,5.49,2.75,1.4,5.37.93,6.51.72,1.08-.19,3.42-.65,5.43-2.59,1.61-1.56,2.17-3.28,2.71-4.94,1.09-3.34.96-6.48.72-6.51ZM50.65,63.42c-.16-.02-.21,1.39-1.14,3.26-.61,1.23-1.65,3.3-3.56,3.92-2,.65-4.02-.61-5.36-1.45-3.2-1.99-5.37-4.76-5.37-4.76-.35-.45-.96-1.27-1.99-1.51-.79-.18-1.7,0-2.29.42-1.86,1.32-1.28,5.46-.3,7.96.39,1.01,1.52,3.9,4.64,5.49,2.75,1.4,5.37.93,6.51.72,1.08-.19,3.42-.65,5.43-2.59,1.61-1.56,2.17-3.28,2.71-4.94,1.09-3.34.96-6.48.72-6.51ZM50.65,63.42c-.16-.02-.21,1.39-1.14,3.26-.61,1.23-1.65,3.3-3.56,3.92-2,.65-4.02-.61-5.36-1.45-3.2-1.99-5.37-4.76-5.37-4.76-.35-.45-.96-1.27-1.99-1.51-.79-.18-1.7,0-2.29.42-1.86,1.32-1.28,5.46-.3,7.96.39,1.01,1.52,3.9,4.64,5.49,2.75,1.4,5.37.93,6.51.72,1.08-.19,3.42-.65,5.43-2.59,1.61-1.56,2.17-3.28,2.71-4.94,1.09-3.34.96-6.48.72-6.51Z"/>
      <path class="cls-1" d="M10.73,25.08c-.06.06-.12.12-.17.18,0-.08,0-.16,0-.25.05.02.11.05.17.07Z"/>
      <path class="cls-1" d="M70.64,25.23s0,.05,0,.08c-.02-.02-.04-.05-.07-.07.02,0,.04,0,.07,0Z"/>
    </g>
  </g>
</svg>